<svg width="188" height="82" viewBox="0 0 188 82" fill="none" xmlns="http://www.w3.org/2000/svg">
<g clip-path="url(#clip0_1_81)">
<mask id="mask0_1_81" style="mask-type:luminance" maskUnits="userSpaceOnUse" x="0" y="0" width="388" height="82">
<path d="M387.843 0H0V82H387.843V0Z" fill="white"/>
</mask>
<g mask="url(#mask0_1_81)">
<path d="M3.36106 16.6106C5.25662 20.6118 7.82368 24.5141 10.7992 28.2422C29.8169 52.07 65.6619 68.708 51.612 57.5499C33.3609 43.0571 23.5605 26.7607 26.3087 24.8189C32.1328 20.7029 71.7677 33.7104 68.5331 37.7683C67.229 39.4037 61.0324 41.646 55.77 43.55C47.9803 46.3685 42.2372 48.4463 57.4386 46.7204C82.911 43.8288 94.6216 39.5953 75.3341 24.2779C65.863 16.7571 47.1322 8.51064 30.717 3.82346C25.8235 2.4264 21.1375 1.34597 16.9618 0.695597C6.62079 -0.916489 -0.578113 0.109864 0.0365549 5.50546C0.463518 9.2481 1.63602 12.9696 3.36106 16.6106Z" fill="#1D1D1B"/>
<path d="M79.8732 81.4697C81.3246 73.239 85.4146 56.8413 96.3331 41.9485C97.0402 40.9841 96.2735 39.6424 95.084 39.7771L93.4751 39.9604C86.9056 40.7057 74.9002 49.0169 78.591 81.4009C78.6768 82.1556 79.7411 82.2178 79.8732 81.4697Z" fill="#1D1D1B"/>
<path d="M176.366 46.6735L176.341 46.6949L176.331 46.7036C175.951 47.0256 175.562 47.3562 175.163 47.6955C173.532 49.0838 176.566 50.1498 179.825 51.2949C183.335 52.5285 187.107 53.854 185.59 55.773C145.042 107.055 101.424 59.7901 102.483 56.8943C102.599 56.5771 104.141 57.3426 106.669 58.5977C116.825 63.6398 142.898 76.5841 156.389 58.963C158.304 56.4602 153.877 56.4563 149.32 56.4522C145.354 56.4488 141.29 56.4454 141.22 54.7956C141.151 53.1431 144.959 51.3833 148.277 49.8499C150.76 48.7023 152.97 47.6812 153.076 46.9263C153.535 43.6823 126.865 41.6059 104.306 43.3514C81.6331 45.1059 155.54 23.7675 182.456 35.9372C186.737 37.8729 183.129 40.9349 176.366 46.6735Z" fill="#1D1D1B"/>
<path d="M103.327 29.2717C102.579 26.8641 99.2652 25.7521 95.9261 26.7848C92.5871 27.8192 90.4855 30.6081 91.2336 33.0157C91.9818 35.4219 95.2958 36.5353 98.6346 35.5023C101.975 34.468 104.074 31.6793 103.327 29.2717Z" fill="#1D1D1B"/>
</g>
</g>
<defs>
<clipPath id="clip0_1_81">
<rect width="188" height="82" fill="white"/>
</clipPath>
</defs>
</svg>
