<svg width="428" height="385" viewBox="0 0 428 385" fill="none" xmlns="http://www.w3.org/2000/svg">
<g clip-path="url(#clip0_1_31)">
<path d="M426.369 209.788C423.816 94.3878 329.419 1.83606 213.304 1.83606C95.5543 1.83606 0 97.1929 0 214.685H85.2738C85.2738 308.63 161.68 384.861 255.821 384.861C348.346 384.861 423.816 311.197 426.369 219.343V209.788ZM255.821 299.773C244.624 299.795 233.532 297.61 223.182 293.343C212.831 289.076 203.426 282.811 195.504 274.906C187.582 267.002 181.3 257.613 177.017 247.279C172.735 236.945 170.536 225.869 170.548 214.685C170.536 203.5 172.735 192.424 177.017 182.09C181.3 171.756 187.582 162.367 195.504 154.463C203.426 146.558 212.831 140.293 223.182 136.026C233.532 131.759 244.624 129.574 255.821 129.596C267.019 129.574 278.111 131.759 288.461 136.026C298.811 140.293 308.217 146.558 316.139 154.463C324.061 162.367 330.343 171.756 334.625 182.09C338.908 192.424 341.106 203.5 341.095 214.685C341.106 225.869 338.908 236.945 334.625 247.279C330.343 257.613 324.061 267.002 316.139 274.906C308.217 282.811 298.811 289.076 288.461 293.343C278.111 297.61 267.019 299.795 255.821 299.773ZM1640.3 81.0932C1566.01 81.0932 1505.5 141.021 1505.5 214.447C1505.5 289.284 1564.61 347.8 1640.3 347.8C1715.77 347.8 1775.11 289.284 1775.11 214.447C1774.87 141.004 1714.6 81.0932 1640.3 81.0932ZM1640.3 292.072C1600.59 292.072 1571.62 256.659 1571.62 214.685C1571.62 172.727 1600.36 137.28 1640.3 137.28C1679.09 137.28 1708.28 173.424 1708.28 214.685C1708.28 256.659 1679.55 292.072 1640.3 292.072ZM1048.05 86.9245L1047.83 116.54C1047.83 116.54 1044.78 112.799 1042.21 110.011C1029.62 94.8638 1005.07 81.3312 969.33 81.3312C903.204 81.3312 849.232 141.242 849.232 214.685C849.232 288.349 903.204 348.038 969.33 348.038C1005.31 348.038 1029.6 334.522 1042.21 319.358C1044.78 316.332 1047.83 312.829 1047.83 312.829L1048.07 342.445H1113.48V86.9245H1048.05ZM1052.03 214.685C1052.03 258.274 1025.16 292.089 984.512 292.089C943.867 292.089 915.357 258.274 915.357 214.685C915.357 171.095 943.867 137.28 984.512 137.28C1025.16 137.059 1052.03 170.857 1052.03 214.685C1052.03 214.447 1052.03 214.447 1052.03 214.685ZM2271.35 86.9245L2271.11 116.54C2271.11 116.54 2268.06 112.799 2265.49 110.011C2252.88 94.8638 2228.35 81.3312 2192.61 81.3312C2126.48 81.3312 2072.53 141.242 2072.53 214.685C2072.53 288.349 2126.48 348.038 2192.61 348.038C2228.59 348.038 2252.88 334.522 2265.49 319.358C2268.06 316.332 2271.11 312.829 2271.11 312.829L2271.35 342.445H2336.76V86.9245H2271.35ZM2275.31 214.685C2275.31 258.274 2248.44 292.089 2207.79 292.089C2167.15 292.089 2138.64 258.274 2138.64 214.685C2138.64 171.095 2167.15 137.28 2207.79 137.28C2248.44 137.059 2275.31 170.857 2275.31 214.685C2275.31 214.447 2275.31 214.447 2275.31 214.685ZM750.886 180.649H817.011C800.876 118.172 753.218 81.1102 688.981 81.1102C612.116 81.1102 554.177 138.454 554.177 214.447C554.177 290.44 612.116 347.8 688.981 347.8C753.218 347.8 800.876 310.738 817.011 248.261H750.648C738.733 275.071 717.474 291.851 688.981 291.851C648.557 291.851 620.286 258.274 620.286 214.447C620.286 170.398 648.557 137.059 688.981 137.059C717.474 137.059 738.971 153.839 750.886 180.649ZM1228.2 86.9245H1171.88V342.224H1237.53V185.307L1316.02 285.56L1394.05 185.307V342.224H1459.7V86.9075H1403.39L1315.57 199.044L1228.18 86.9075L1228.2 86.9245ZM2056.41 86.9245H1979.07L1885.84 199.061V86.9245H1820.2V342.224H1885.84V231.957L1989.82 342.224H2073.68L1949.86 212.61L2056.41 86.9245ZM2458.49 342.224H2524.14V141.956H2601.46V86.9245H2381.39V141.956H2458.49V342.224Z" fill="white"/>
</g>
<defs>
<clipPath id="clip0_1_31">
<rect width="428" height="385" fill="white"/>
</clipPath>
</defs>
</svg>
