<svg width="102" height="148" viewBox="0 0 102 148" fill="none" xmlns="http://www.w3.org/2000/svg">
<g clip-path="url(#clip0_1_33)">
<path fill-rule="evenodd" clip-rule="evenodd" d="M50.8518 91.0716C50.8518 90.7629 50.6019 90.5102 50.2937 90.5075C28.707 90.2042 11.301 72.595 11.301 50.912C11.301 29.2263 28.707 11.6171 50.2937 11.3164C50.6019 11.3111 50.8518 11.061 50.8518 10.7497V0.566756C50.8518 0.41509 50.7934 0.271404 50.6844 0.164971C50.5755 0.0585387 50.4318 0 50.2804 0C22.4585 0.311315 0 22.9841 0 50.912C0 78.8372 22.4585 101.51 50.2804 101.821C50.4318 101.824 50.5755 101.763 50.6844 101.659C50.7934 101.55 50.8518 101.406 50.8518 101.255V91.0716Z" fill="white"/>
<path fill-rule="evenodd" clip-rule="evenodd" d="M50.8568 136.325C50.8568 136.016 51.1065 135.763 51.4149 135.761C73.0016 135.457 90.4075 117.848 90.4075 96.165C90.4075 74.4794 73.0016 56.8702 51.4149 56.5696C51.1065 56.5642 50.8568 56.314 50.8568 56.0028V45.8225C50.8568 45.6708 50.9152 45.5245 51.0242 45.418C51.1331 45.3115 51.2766 45.253 51.4281 45.2557C79.2501 45.5644 101.709 68.2372 101.709 96.165C101.709 124.09 79.2501 146.765 51.4281 147.074C51.2766 147.077 51.1331 147.019 51.0242 146.912C50.9152 146.803 50.8568 146.66 50.8568 146.507V136.325Z" fill="white"/>
<path fill-rule="evenodd" clip-rule="evenodd" d="M50.851 79.1938C60.2091 79.1938 67.8052 86.7904 67.8052 96.1645C67.8052 105.355 60.5121 112.835 51.4064 113.125C51.1009 113.135 50.859 113.385 50.859 113.691V123.874C50.859 124.029 50.9174 124.172 51.0264 124.279C51.1354 124.385 51.2842 124.444 51.4357 124.441C66.7713 124.132 79.1061 111.592 79.1061 96.1645C79.1061 80.5429 66.455 67.8828 50.851 67.8828C41.4929 67.8801 33.9022 60.2862 33.9022 50.9121C33.9022 41.7216 41.1978 34.2394 50.3034 33.9494C50.6091 33.9388 50.851 33.6886 50.851 33.3853V23.1998C50.851 23.0454 50.7899 22.9017 50.6836 22.7952C50.5746 22.6888 50.4258 22.6303 50.2743 22.633C34.9387 22.9417 22.6011 35.4821 22.6011 50.9121C22.6011 66.5338 35.2497 79.1938 50.851 79.1938Z" fill="white"/>
</g>
<defs>
<clipPath id="clip0_1_33">
<rect width="102" height="148" fill="white"/>
</clipPath>
</defs>
</svg>
