<svg width="195" height="148" viewBox="0 0 195 148" fill="none" xmlns="http://www.w3.org/2000/svg">
<g clip-path="url(#clip0_1_3)">
<path d="M179.957 16.5608V0H118.695C87.7925 0 62.7397 25.043 62.7397 55.9362V148H79.3069V58.1323C79.3069 35.1749 97.9255 16.5635 120.892 16.5635H179.954L179.957 16.5608Z" fill="#FF4808"/>
<path d="M72.9265 0H0V16.5608H58.0688C62.1474 10.3067 67.1682 4.71742 72.9293 0H72.9265Z" fill="#FF4808"/>
<path d="M153.539 66.2483H129.014V82.8091H153.539C166.973 82.8091 177.862 93.6943 177.862 107.123C177.862 120.551 166.973 131.436 153.539 131.436H112.447V58.7024C112.447 53.7214 116.485 49.6848 121.468 49.6848H179.959V33.124H117.791C105.69 33.124 95.8795 42.9303 95.8795 55.0266V148H153.542C176.126 148 194.432 129.701 194.432 107.125C194.432 84.55 176.126 66.2509 153.542 66.2509L153.539 66.2483Z" fill="#FF4808"/>
<path d="M0 49.6848H46.6434C47.1362 43.9475 48.3019 38.4013 50.0624 33.124H0V49.6848Z" fill="#FF4808"/>
</g>
<defs>
<clipPath id="clip0_1_3">
<rect width="195" height="148" fill="white"/>
</clipPath>
</defs>
</svg>
