<svg width="2442" height="1003" viewBox="0 0 2442 1003" fill="none" xmlns="http://www.w3.org/2000/svg">
<g clip-path="url(#clip0_74_2)">
<path fill-rule="evenodd" clip-rule="evenodd" d="M303.889 216.259C268.01 203.212 250.021 164.064 252.135 127.279L251.214 127.509C229.285 133.459 209.637 146.089 196.158 164.542L195.567 165.32C182.408 183.766 175.193 208.223 177.62 237.998C178.112 244.02 179.019 250.305 180.356 256.818C195.69 257.835 209.814 261.971 222.386 268.7C239.805 278.029 254.057 292.211 264.197 309.757L264.441 309.365C264.618 309.027 264.798 308.683 264.998 308.353C266.831 305.367 268.196 303.023 269.05 301.395C270.033 299.52 270.868 297.736 271.512 296.134L271.541 296.066C274.961 287.529 284.662 283.384 293.197 286.804C301.733 290.227 305.88 299.926 302.458 308.464L302.43 308.532C301.485 310.889 300.164 313.694 298.536 316.792C296.786 320.131 295.049 323.209 293.436 325.838C293.174 326.264 292.906 326.684 292.615 327.074C282.514 343.147 266.75 362.191 251.11 370.612C243.007 374.969 232.897 371.929 228.541 363.827C224.185 355.725 227.223 345.613 235.326 341.256C237.105 340.297 238.937 339.08 240.77 337.635C233.704 320.103 221.909 306.189 206.727 298.058C190.028 289.121 168.76 286.949 144.594 294.33C143.845 294.554 142.657 294.955 141.226 295.438C129.692 299.342 119.039 306.065 110.098 314.729C99.0426 325.442 90.6063 339.085 86.3595 354.102C82.1616 368.918 82.0369 385.142 87.4855 401.228C90.9159 411.369 96.585 421.552 104.806 431.381C110.408 429.405 116.415 427.721 122.831 426.371C123.294 426.236 123.762 426.114 124.249 426.018L125.78 425.717L125.786 425.75L125.91 425.717C169.571 417.409 214.409 430.34 244.101 460.641C250.012 466.667 255.303 473.329 259.831 480.572C264.355 487.807 268.186 495.704 271.177 504.198L271.23 504.35C274.288 513.03 269.731 522.559 261.053 525.618C252.374 528.676 242.845 524.12 239.787 515.439L239.735 515.287C237.573 509.156 234.801 503.44 231.519 498.191C228.24 492.951 224.485 488.203 220.357 483.995C198.496 461.682 165.048 452.233 132.17 458.446L130.643 458.765C130.266 458.832 129.898 458.899 129.526 458.955C123.801 460.182 118.208 461.87 112.832 463.994C107.206 466.213 102.172 468.76 97.7532 471.586L97.7735 471.62C74.6359 486.435 61.8787 511.488 61.2862 541.889L61.2812 542.366L61.2677 543.187C61.2341 548.946 61.7929 554.4 62.8701 559.525C63.8868 564.349 65.4236 568.859 67.3896 573.005C77.3947 594.054 99.7343 606.025 126.974 607.662C136.158 608.202 143.167 616.089 142.628 625.275C142.089 634.461 134.202 641.471 125.016 640.93C120.837 640.678 116.743 640.259 112.722 639.643C101.904 650.619 95.3058 669.972 94.2184 691.508C93.5552 704.653 94.991 718.402 98.8035 731.424C102.507 744.073 108.494 756.055 117.006 766.081C127.541 778.501 142.222 788.002 161.594 792.083C161.722 786.07 162.211 780.142 163.035 774.316C167.573 742.527 182.402 716.851 203.013 698.894C203.343 698.569 203.673 698.244 204.03 697.94C225.215 679.921 252.249 670.086 280.462 670.086C286.079 670.086 291.881 670.508 297.821 671.351C306.934 672.646 313.27 681.091 311.977 690.205C310.684 699.319 302.239 705.657 293.126 704.362C289.028 703.781 284.786 703.49 280.462 703.49C260.108 703.49 240.689 710.513 225.559 723.382C225.259 723.636 224.963 723.884 224.653 724.113C209.98 736.982 199.378 755.644 196.043 779.012C195.328 784.041 194.951 789.443 194.951 795.203H194.884L194.889 796.619C194.956 805.734 195.752 814.308 197.217 822.283C198.615 829.893 200.691 836.957 203.382 843.446C213.955 868.917 235.035 884.845 264.316 890.585C258.127 856.926 268.974 817.686 297.855 799.445C320.289 785.273 338.119 813.517 315.69 827.684C294.513 841.06 291.403 878.246 301.933 899.319C313.113 921.674 339.833 928.158 362.95 927.518C389.477 926.998 411.531 905.34 411.531 878.641V539.33C403.349 530.789 394.14 527.23 385.675 525.813C379.358 524.752 372.268 524.839 366.303 524.982C365.816 527.306 365.239 529.6 364.581 531.896C360.072 547.604 351.465 562.541 338.143 575.314C321.664 591.109 298.04 603.477 266.119 609.599C257.079 611.327 248.343 605.397 246.614 596.353C244.887 587.312 250.819 578.573 259.859 576.846C284.986 572.027 303.007 562.841 315.05 551.303C323.867 542.852 329.541 533.036 332.489 522.762C335.486 512.327 335.744 501.328 333.706 490.696C330.863 475.842 323.61 461.755 313.127 450.815C306.752 444.186 306.958 433.637 313.584 427.262C320.213 420.887 330.762 421.092 337.136 427.719C352.09 443.322 362.42 463.36 366.456 484.435C366.909 486.807 367.296 489.203 367.592 491.604C373.962 491.399 381.72 491.351 391.152 492.936C397.766 494.043 404.652 495.913 411.531 499.038V117.13C411.531 103.429 405.695 90.593 395.628 81.3647C376.052 63.4082 343.711 65.185 321.563 77.147C311.42 82.6247 302.973 90.4506 295.803 99.4129C277.185 122.694 283.611 173.341 315.303 184.869C340.233 193.936 328.821 225.324 303.889 216.259ZM261.448 91.5005C263.778 86.9049 266.522 82.5485 269.723 78.5454C279.718 66.0531 291.569 55.3878 305.693 47.7537C340.514 28.9521 387.974 29.0195 418.202 56.748C435.164 72.299 444.931 94.063 444.931 117.13V878.641C444.931 923.52 408.382 960.034 363.741 960.911C331.659 961.8 298.565 951.807 279.265 925.934C227.673 922.872 190.384 899.118 172.588 856.234C169.056 847.721 166.328 838.392 164.466 828.285L164.118 826.291C132.264 822.015 108.395 807.446 91.5656 787.611C79.9464 773.925 71.8214 757.716 66.8357 740.691C61.9594 724.032 60.113 706.562 60.953 689.942C62.1026 667.181 68.381 645.612 78.8877 629.14C60.7139 620.06 46.1658 605.968 37.2531 587.226C34.2082 580.807 31.8382 573.826 30.2542 566.31C28.736 559.095 27.9533 551.313 28.0022 543.019V542.884L28.0206 541.423V541.355C28.7932 501.658 45.0784 468.299 74.7031 447.018C66.1052 435.608 59.9312 423.797 55.9083 411.916C48.1654 389.054 48.3271 366.059 54.2672 345.093C60.1467 324.311 71.7205 305.52 86.8695 290.842C99.3522 278.751 114.301 269.365 130.532 263.863L130.542 263.88L130.6 263.863C131.731 263.481 133.128 263.031 134.937 262.483C138.958 261.257 142.938 260.23 146.86 259.395C145.691 252.986 144.856 246.718 144.355 240.596C141.234 202.37 151.007 170.36 168.684 145.738C168.876 145.436 169.071 145.127 169.285 144.835C187.407 120.022 213.512 103.129 242.473 95.2712C248.647 93.6013 254.998 92.3489 261.448 91.5005Z" fill="#004F91"/>
<path fill-rule="evenodd" clip-rule="evenodd" d="M303.89 216.258C268.011 203.212 250.022 164.064 252.136 127.279L251.216 127.508C229.287 133.459 209.638 146.088 196.159 164.542L195.568 165.319C182.409 183.766 175.195 208.223 177.622 237.998C178.113 244.019 179.02 250.305 180.357 256.818C195.691 257.835 209.815 261.971 222.387 268.699C239.807 278.029 254.059 292.21 264.198 309.756L264.442 309.365C264.619 309.026 264.799 308.683 264.999 308.353C266.833 305.366 268.198 303.023 269.051 301.395C270.034 299.52 270.869 297.736 271.514 296.133L271.542 296.065C274.962 287.529 284.663 283.383 293.199 286.804C301.734 290.226 305.881 299.926 302.459 308.464L302.431 308.531C301.487 310.888 300.165 313.694 298.538 316.791C296.787 320.131 295.05 323.208 293.438 325.838C293.175 326.264 292.907 326.683 292.616 327.074C282.515 343.147 266.752 362.19 251.111 370.612C243.008 374.969 232.899 371.929 228.543 363.827C224.186 355.725 227.225 345.612 235.328 341.256C237.107 340.296 238.938 339.079 240.771 337.635C233.705 320.103 221.911 306.188 206.728 298.058C190.029 289.121 168.761 286.948 144.595 294.33C143.846 294.554 142.658 294.955 141.227 295.438C129.694 299.341 119.041 306.065 110.099 314.729C99.0439 325.442 90.6076 339.085 86.3608 354.102C82.1628 368.917 82.0382 385.142 87.4868 401.228C90.9172 411.369 96.5863 421.551 104.807 431.381C110.409 429.404 116.416 427.721 122.833 426.371C123.296 426.236 123.764 426.113 124.25 426.017L125.782 425.716L125.787 425.749L125.911 425.716C169.573 417.409 214.41 430.34 244.102 460.64C250.014 466.667 255.304 473.328 259.832 480.572C264.357 487.807 268.187 495.704 271.179 504.198L271.231 504.35C274.289 513.03 269.733 522.559 261.054 525.617C252.375 528.676 242.847 524.119 239.788 515.438L239.736 515.286C237.575 509.155 234.803 503.439 231.52 498.191C228.241 492.95 224.486 488.203 220.359 483.994C198.497 461.681 165.05 452.232 132.171 458.446L130.645 458.764C130.268 458.832 129.899 458.899 129.527 458.954C123.802 460.181 118.209 461.869 112.833 463.994C107.208 466.213 102.173 468.759 97.7545 471.586L97.7747 471.62C74.6372 486.435 61.88 511.487 61.2875 541.889L61.2825 542.366L61.269 543.187C61.2353 548.946 61.7942 554.4 62.8714 559.524C63.8881 564.349 65.4249 568.858 67.3909 573.004C77.396 594.053 99.7356 606.025 126.975 607.661C136.159 608.202 143.168 616.089 142.629 625.275C142.091 634.461 134.203 641.47 125.018 640.93C120.838 640.678 116.745 640.259 112.723 639.643C101.905 650.618 95.3071 669.972 94.2197 691.507C93.5565 704.653 94.9923 718.401 98.8048 731.424C102.508 744.073 108.495 756.054 117.007 766.081C127.542 778.501 142.224 788.002 161.596 792.082C161.724 786.069 162.212 780.142 163.037 774.316C167.575 742.527 182.404 716.85 203.015 698.894C203.345 698.569 203.675 698.244 204.031 697.939C225.217 679.92 252.251 670.086 280.463 670.086C286.08 670.086 291.882 670.507 297.822 671.351C306.935 672.645 313.271 681.091 311.978 690.205C310.686 699.318 302.241 705.656 293.128 704.362C289.029 703.781 284.787 703.489 280.463 703.489C260.11 703.489 240.69 710.513 225.56 723.382C225.26 723.636 224.964 723.883 224.654 724.112C209.982 736.982 199.379 755.644 196.045 779.012C195.329 784.04 194.952 789.442 194.952 795.203H194.885L194.89 796.619C194.957 805.734 195.753 814.308 197.218 822.282C198.617 829.893 200.692 836.956 203.383 843.446C213.956 868.917 235.036 884.845 264.318 890.585C258.128 856.926 268.975 817.686 297.856 799.445C320.29 785.273 338.12 813.516 315.691 827.683C294.515 841.06 291.404 878.246 301.934 899.318C313.114 921.674 339.834 928.157 362.951 927.518C389.479 926.998 411.532 905.339 411.532 878.641V539.33C403.35 530.788 394.141 527.23 385.676 525.812C379.359 524.752 372.27 524.838 366.304 524.981C365.818 527.306 365.24 529.6 364.582 531.896C360.073 547.604 351.467 562.541 338.144 575.314C321.665 591.109 298.041 603.477 266.12 609.599C257.08 611.326 248.344 605.396 246.615 596.353C244.888 587.312 250.82 578.573 259.861 576.846C284.988 572.026 303.008 562.84 315.052 551.303C323.868 542.852 329.543 533.036 332.49 522.762C335.488 512.327 335.745 501.327 333.707 490.695C330.864 475.841 323.611 461.755 313.128 450.815C306.753 444.186 306.959 433.636 313.586 427.262C320.214 420.887 330.763 421.091 337.137 427.719C352.091 443.322 362.421 463.359 366.457 484.435C366.91 486.807 367.297 489.203 367.594 491.604C373.963 491.398 381.721 491.351 391.154 492.935C397.767 494.043 404.653 495.913 411.532 499.037V117.13C411.532 103.429 405.697 90.5926 395.629 81.3643C376.053 63.4078 343.712 65.1846 321.564 77.1466C311.421 82.6243 302.975 90.4502 295.804 99.4125C277.186 122.694 283.612 173.341 315.304 184.869C340.234 193.935 328.822 225.323 303.89 216.258Z" fill="url(#paint0_linear_74_2)"/>
<path d="M701.328 220.819L701.395 220.735C703.27 209.179 708.757 198.827 716.667 190.92C726.492 181.106 740.086 175.026 755.11 175.002V174.952H755.177H755.211V175.002C770.261 175.012 783.912 181.131 793.769 190.999C803.573 200.818 809.662 214.412 809.687 229.443H809.737V229.51V229.544H809.687C809.677 244.594 803.56 258.245 793.688 268.105C783.873 277.915 770.274 283.999 755.25 284.023V284.073H755.182H755.149V284.023C740.104 284.013 726.473 277.901 716.62 268.051L716.586 268.085C712.277 263.777 708.699 258.747 706.032 253.179C690.616 262.628 674.245 265.518 659.025 264.254C638.665 262.56 620.286 253.155 609.011 241.998L608.961 241.947L608.776 241.762C597.234 230.219 587.037 217.997 588.044 198.605C588.922 181.613 599.609 160.741 628.714 132.422C641.821 119.667 642.075 110.944 636.143 104.845C621.967 90.2819 585.547 80.6146 561.348 74.1959L557.355 73.1366C539.725 68.4367 528.755 67.1387 523.453 69.8961C520.142 71.6198 518.811 77.8418 518.811 88.984V252.483C538.851 271.977 622.13 352.953 638.453 368.023C646.296 375.262 651.498 379.408 656.884 381.413C662.428 383.473 669.952 383.994 682.449 383.994C705.123 383.994 750.097 383.221 770.513 382.844C773.077 373.707 777.943 365.522 784.46 359.009C794.285 349.193 807.877 343.114 822.903 343.091V343.041H822.971H823.005V343.091C838.054 343.099 851.703 349.216 861.562 359.084C871.367 368.905 877.455 382.501 877.479 397.531H877.529V397.598V397.632H877.479C877.47 412.683 871.353 426.335 861.481 436.193C851.666 446.004 838.068 452.087 823.043 452.113V452.163H822.976H822.942V452.113C807.899 452.103 794.267 445.99 784.415 436.141L784.381 436.175C777.648 429.441 772.686 420.939 770.215 411.391C748.734 411.801 702.557 412.626 682.445 412.626C666.701 412.626 656.556 411.729 646.928 408.145C637.141 404.504 629.612 398.745 619.106 389.049C606.487 377.401 551.339 323.909 518.808 292.305V399.567C531.933 413.352 554.525 438.365 577.596 463.914C611.171 501.1 645.817 539.47 653.203 545.377C661.151 551.737 745.608 546.565 776.265 544.461C778.965 534.874 784.09 526.289 790.936 519.442C801.262 509.12 815.566 502.722 831.374 502.698V502.648H831.441H831.474V502.698C847.312 502.707 861.655 509.141 872.032 519.524C882.352 529.849 888.751 544.154 888.775 559.963H888.825V560.031V560.065H888.775C888.765 575.902 882.333 590.245 871.951 600.623C861.621 610.946 847.315 617.344 831.513 617.368V617.419H831.446H831.412V617.368C815.576 617.358 801.234 610.926 790.855 600.543C783.455 593.138 778.088 583.694 775.625 573.11C749.33 574.728 691.74 577.553 658.451 573.787C658.251 588.867 657.864 606.249 657.864 622.583C657.864 643.708 658.48 662.78 660.893 671.231L660.927 671.332L661.099 671.966C661.639 673.54 662.563 675.502 663.853 677.769C665.564 680.781 667.774 684.058 670.404 687.421C682.848 703.346 704.49 721.689 730.565 729.099C733.322 722.714 737.249 716.955 742.092 712.117C751.917 702.301 765.511 696.222 780.535 696.197V696.146H780.602H780.636V696.197C795.686 696.207 809.337 702.324 819.194 712.192C828.998 722.013 835.087 735.608 835.112 750.639H835.162V750.706V750.74H835.112C835.102 765.791 828.985 779.443 819.113 789.301C809.298 799.112 795.699 805.196 780.675 805.219V805.27H780.608H780.574V805.219C765.529 805.211 751.899 799.097 742.045 789.249L742.011 789.283C733.694 780.965 728.079 769.937 726.532 757.593C692.127 748.919 663.832 725.342 647.926 704.985C644.332 700.389 641.331 695.941 639.017 691.866C636.751 687.883 635.024 684.041 633.874 680.51C633.703 680.075 633.539 679.617 633.411 679.16L633.378 679.059C630.166 667.812 629.35 646.11 629.345 622.585C629.345 602.066 629.947 579.897 630.047 562.719C616.214 549.22 585.921 515.674 556.453 483.035C543.204 468.362 530.126 453.884 518.803 441.506V688.994L671.122 841.327C681.553 843.431 690.872 848.591 698.114 855.824L698.148 855.792C707.705 865.35 713.627 878.609 713.651 893.291H713.701V893.359V893.393H713.651C713.64 908.06 707.677 921.35 698.067 930.956C688.505 940.514 675.265 946.435 660.626 946.459V946.51H660.558H660.525V946.459C645.857 946.449 632.57 940.485 622.965 930.875C621.381 929.291 619.907 927.621 618.537 925.845C584.556 942.499 559.73 948.863 541.694 948.863V948.813C530.09 948.809 520.873 946.3 513.591 942.138C505.724 937.634 500.242 931.373 496.554 924.286C491.81 915.182 490.24 904.813 490.24 895.34H490.189V88.9789C490.189 66.2264 495.926 51.9597 510.264 44.5057C522.607 38.0887 539.903 38.9089 564.633 45.5044L568.626 46.5627C595.889 53.7911 636.904 64.6707 656.62 84.9318C674.167 102.974 676.988 125.287 648.628 152.886C625.482 175.41 617.089 189.859 616.564 200.051C616.163 207.834 622.203 214.696 629.022 221.514L629.156 221.649C636.264 228.683 648.084 234.638 661.39 235.744C674.349 236.818 688.688 233.074 701.328 220.819ZM518.809 729.476V895.342H518.759C518.759 900.768 519.552 906.499 521.942 911.09C523.245 913.595 525.138 915.79 527.796 917.307C531.06 919.174 535.577 920.3 541.699 920.3V920.25C556.123 920.25 577.261 914.46 607.806 899.258C607.601 897.354 607.473 895.406 607.468 893.445H607.417V893.378V893.344H607.468C607.478 878.69 613.432 865.415 623.023 855.81L622.989 855.776C626.71 852.054 631.02 848.894 635.728 846.408L518.809 729.476ZM755.214 203.522V203.572H755.181H755.113V203.522C748 203.532 741.511 206.451 736.797 211.166C732.105 215.853 729.195 222.342 729.19 229.485H729.241V229.519V229.586H729.19C729.2 236.662 732.126 243.132 736.835 247.842L736.802 247.876L736.835 247.91C741.52 252.605 748.008 255.515 755.152 255.52V255.47H755.186H755.253V255.52C762.368 255.51 768.852 252.586 773.567 247.876C778.261 243.19 781.171 236.7 781.176 229.558H781.126V229.524V229.456H781.176C781.166 222.342 778.241 215.853 773.533 211.138C768.847 206.448 762.358 203.527 755.214 203.522ZM823.006 371.603V371.653H822.973H822.905V371.603C815.79 371.613 809.301 374.533 804.588 379.248C799.897 383.933 796.987 390.422 796.982 397.566H797.032V397.6V397.668H796.982C796.992 404.745 799.916 411.215 804.625 415.924L804.592 415.958L804.625 415.992C809.311 420.688 815.8 423.598 822.942 423.603V423.553H822.976H823.043V423.603C830.156 423.593 836.642 420.667 841.355 415.959C846.049 411.272 848.961 404.784 848.965 397.639H848.914V397.605V397.538H848.965C848.956 390.424 846.031 383.933 841.321 379.219C836.637 374.528 830.15 371.608 823.006 371.603ZM831.479 531.21V531.26H831.446H831.379V531.21C823.483 531.218 816.287 534.459 811.067 539.679C805.866 544.881 802.636 552.072 802.631 559.997H802.681V560.031V560.098H802.631C802.641 567.996 805.886 575.188 811.101 580.411C816.302 585.613 823.491 588.844 831.417 588.849V588.797H831.451H831.518V588.849C839.414 588.839 846.605 585.595 851.83 580.379C857.031 575.178 860.261 567.986 860.266 560.061H860.216V560.028V559.96H860.266C860.256 552.063 857.016 544.866 851.796 539.646C846.597 534.446 839.406 531.213 831.479 531.21ZM780.636 724.714V724.764H780.602H780.535V724.714C773.422 724.724 766.933 727.644 762.218 732.358C757.527 737.044 754.617 743.534 754.612 750.676H754.662V750.71V750.777H754.612C754.622 757.854 757.547 764.324 762.257 769.034L762.223 769.067L762.257 769.1C766.941 773.797 773.43 776.707 780.574 776.711V776.66H780.608H780.675V776.711C787.79 776.702 794.274 773.777 798.987 769.067C803.683 764.382 806.593 757.892 806.598 750.748H806.548V750.715V750.647H806.598C806.588 743.532 803.663 737.043 798.955 732.329C794.269 727.638 787.78 724.719 780.636 724.714ZM660.59 868.784V868.834H660.557H660.489V868.784C653.8 868.792 647.688 871.556 643.231 876.012L643.198 875.978L643.164 876.012C638.727 880.446 635.975 886.582 635.97 893.334H636.02V893.367V893.434H635.97C635.978 900.158 638.742 906.291 643.198 910.752C647.631 915.191 653.767 917.943 660.518 917.948V917.898H660.552H660.619V917.948C667.342 917.938 673.474 915.176 677.934 910.72C682.373 906.286 685.125 900.149 685.13 893.397H685.08V893.364V893.297H685.13C685.12 886.607 682.358 880.495 677.902 876.037L677.936 876.004L677.902 875.97C673.469 871.532 667.342 868.789 660.59 868.784Z" fill="#004F91"/>
<path d="M935.496 58.612H1067.17V431.28H1259.24V540H935.496V58.612ZM1289.69 58.612H1421.36V431.28H1613.43V540H1289.69V58.612ZM1643.87 58.612H1935C1963.19 58.612 1989.56 66.464 2014.13 82.168C2038.69 97.4693 2059.63 118.811 2076.94 146.192V58.612H2223.71C2268.41 58.612 2307.47 72.3026 2340.89 99.684C2376.33 128.676 2394.04 165.319 2394.04 209.612V540H2262.37V241.624C2262.37 223.907 2255.73 207.196 2242.44 191.492C2229.55 175.385 2214.65 167.332 2197.74 167.332H2084.79V540H1953.12V239.208C1953.12 222.296 1947.49 206.391 1936.21 191.492C1923.73 175.385 1909.63 167.332 1893.93 167.332H1775.55V540H1643.87V58.612Z" fill="#004F91"/>
<path d="M1073.88 927V857.809V788.619V719.428V650.237H1004.69H935.5V581.047H1004.69H1073.88H1143.07H1212.26H1281.45V650.237H1212.26H1143.07V719.428V788.619V857.809V927H1073.88ZM1583.12 857.809H1652.31V927H1583.12H1513.93H1444.74H1375.55H1306.36V857.809V788.619V719.428V650.237V581.047H1375.55H1444.74H1513.93H1583.12H1652.31V650.237H1583.12H1513.93H1444.74H1375.55V719.428H1444.74H1513.93H1583.12H1652.31V788.619H1583.12H1513.93H1444.74H1375.55V857.809H1444.74H1513.93H1583.12ZM1953.99 857.809H2023.18V927H1953.99H1884.8H1815.6H1746.41H1677.22V857.809V788.619V719.428V650.237V581.047H1746.41H1815.6H1884.8H1953.99H2023.18V650.237H1953.99H1884.8H1815.6H1746.41V719.428V788.619V857.809H1815.6H1884.8H1953.99ZM2324.85 927V857.809V788.619H2255.66H2186.47H2117.28V857.809V927H2048.09V857.809V788.619V719.428V650.237V581.047H2117.28V650.237V719.428H2186.47H2255.66H2324.85V650.237V581.047H2394.04V650.237V719.428V788.619V857.809V927H2324.85Z" fill="#004F91"/>
<path d="M2090 58.62H1928.5L1970 154.12H2090V58.62Z" fill="#004F91"/>
</g>
<defs>
<linearGradient id="paint0_linear_74_2" x1="411.532" y1="927.562" x2="411.532" y2="68.0229" gradientUnits="userSpaceOnUse">
<stop stop-color="#1B79B7"/>
<stop offset="1" stop-color="#46B7EF"/>
</linearGradient>
<clipPath id="clip0_74_2">
<rect width="2442" height="1003" fill="white"/>
</clipPath>
</defs>
</svg>
