<?xml version="1.0" encoding="UTF-8" standalone="no"?>
<!-- Created with Inkscape (http://www.inkscape.org/) -->

<svg
   version="1.1"
   id="svg1"
   width="156.1279"
   height="73.370918"
   viewBox="0 0 156.1279 73.370921"
   sodipodi:docname="LLM-tech-logo.pdf"
   xmlns:inkscape="http://www.inkscape.org/namespaces/inkscape"
   xmlns:sodipodi="http://sodipodi.sourceforge.net/DTD/sodipodi-0.dtd"
   xmlns="http://www.w3.org/2000/svg"
   xmlns:svg="http://www.w3.org/2000/svg">
  <defs
     id="defs1">
    <linearGradient
       x1="0"
       y1="0"
       x2="1"
       y2="0"
       gradientUnits="userSpaceOnUse"
       gradientTransform="matrix(0,51.06047,-20.80913,0,97.5084,716.7668)"
       spreadMethod="pad"
       id="linearGradient3">
      <stop
         style="stop-opacity:1;stop-color:#1b79b7"
         offset="0"
         id="stop2" />
      <stop
         style="stop-opacity:1;stop-color:#46b7ef"
         offset="1"
         id="stop3" />
    </linearGradient>
  </defs>
  <sodipodi:namedview
     id="namedview1"
     pagecolor="#ffffff"
     bordercolor="#000000"
     borderopacity="0.25"
     inkscape:showpageshadow="2"
     inkscape:pageopacity="0.0"
     inkscape:pagecheckerboard="0"
     inkscape:deskcolor="#d1d1d1">
    <inkscape:page
       x="-99.630493"
       y="-96.105492"
       inkscape:label="1"
       id="page1"
       width="793.70081"
       height="1122.5197"
       margin="0"
       bleed="0" />
  </sodipodi:namedview>
  <g
     id="g1"
     inkscape:groupmode="layer"
     inkscape:label="1"
     transform="translate(-99.630494,-96.10549)">
    <path
       id="path1"
       d="m 132.431,744.0049 v 23.1523 h 4.0575 v -19.2175 h 10.0907 v -3.9348 z m 17.1527,0 v 23.1523 h 4.0575 v -19.2175 h 10.0908 v -3.9348 z m 16.9889,0 v 23.3425 h 6.0749 l 5.5514,-15.9239 5.4901,15.9239 h 6.0888 v -23.3425 h -3.7675 v 18.375 l -5.8782,-18.375 h -3.9081 l -5.8839,18.375 v -18.375 z m -23.8454,-11.4976 v -3.0277 h -4.2485 v -6.5922 c 0,-1.279 0.0292,-2.024 0.0785,-2.2363 0.4697,-2.0231 2.8772,-0.9329 3.9946,-0.0558 l 0.0669,-3.1581 c -1.8564,-1.1146 -6.027,-1.7283 -7.4948,0.3985 -0.2747,0.398 -0.457,0.9377 -0.5689,1.6169 -0.0791,0.4791 -0.1276,1.4556 -0.1276,2.9211 v 7.1059 h -1.8536 v 3.0277 h 1.8536 v 3.8917 l 4.0513,0.0408 v -3.9325 z m 11.3125,-10.6826 4.0269,-0.69 c -0.5201,-1.516 -1.3342,-2.6694 -2.4522,-3.4602 -1.1135,-0.7957 -2.5115,-1.1886 -4.1885,-1.1886 -2.6535,0 -4.6151,0.8864 -5.8904,2.6694 -1.0054,1.4255 -1.5106,3.2286 -1.5106,5.3994 0,2.5988 0.6622,4.6335 1.9866,6.1041 1.3192,1.4709 2.9914,2.2062 5.0122,2.2062 2.2705,0 4.0609,-0.7707 5.3753,-2.3119 1.3096,-1.5412 1.9372,-3.8982 1.8831,-7.0764 h -10.1177 c 0.0295,-1.2288 0.3529,-2.1858 0.9759,-2.8658 0.6228,-0.6849 1.4029,-1.0273 2.3298,-1.0273 0.6327,0 1.1622,0.176 1.5937,0.5287 0.4317,0.3577 0.7602,0.9269 0.9759,1.7124 z m 0.2308,4.1904 c -0.0295,1.2039 -0.3285,2.1155 -0.9026,2.74 -0.5737,0.6245 -1.275,0.9368 -2.099,0.9368 -0.8827,0 -1.6087,-0.3325 -2.1827,-0.9921 -0.5734,-0.6548 -0.858,-1.5514 -0.8481,-2.6847 z m 20.6084,1.8587 -3.9824,-0.7353 c -0.1326,0.8158 -0.4365,1.4304 -0.9122,1.8434 -0.4756,0.413 -1.0887,0.6193 -1.8442,0.6193 -1.0102,0 -1.8096,-0.3574 -2.408,-1.0678 -0.5981,-0.7152 -0.8975,-1.9088 -0.8975,-3.581 0,-1.8584 0.3039,-3.1731 0.9122,-3.9384 0.6083,-0.7657 1.4222,-1.1484 2.4475,-1.1484 0.7696,0 1.3926,0.2214 1.8833,0.6699 0.4904,0.4481 0.8334,1.2189 1.0347,2.3065 l 3.9676,-0.6899 c -0.4119,-1.8686 -1.2064,-3.2837 -2.3737,-4.2358 -1.1671,-0.957 -2.7318,-1.4304 -4.6985,-1.4304 -2.2314,0 -4.0118,0.7203 -5.3359,2.1657 -1.3292,1.4456 -1.9913,3.4503 -1.9913,6.0088 0,2.5838 0.6672,4.5984 1.9961,6.039 1.334,1.4454 3.134,2.1656 5.4046,2.1656 1.8589,0 3.3349,-0.413 4.4336,-1.2339 1.0939,-0.8212 1.8834,-2.0752 2.3641,-3.7573 z m 7.0821,10.597 v -7.9528 c 1.3045,1.5613 2.8593,2.347 4.669,2.347 0.9317,0 1.7654,-0.1814 2.516,-0.534 0.7455,-0.3524 1.3093,-0.8059 1.6869,-1.3547 0.3778,-0.5542 0.6378,-1.1636 0.775,-1.8334 0.1423,-0.6648 0.2109,-1.7073 0.2109,-3.1125 v -9.1919 h -4.0366 v 8.2803 c 0,1.6418 -0.0782,2.6844 -0.2304,3.1278 -0.1568,0.443 -0.4266,0.7905 -0.8138,1.0525 -0.3875,0.2619 -0.8731,0.3928 -1.4568,0.3928 -0.6721,0 -1.2702,-0.1661 -1.7949,-0.5037 -0.5298,-0.3325 -0.9173,-0.8359 -1.1576,-1.5108 -0.2452,-0.675 -0.3677,-1.6722 -0.3677,-2.9869 v -7.852 h -4.0365 v 21.6323 z"
       style="fill:#004f91;fill-opacity:1;fill-rule:nonzero;stroke:none"
       transform="matrix(1.3333333,0,0,-1.3333333,0,1122.5197)" />
    <path
       id="path2"
       d="m 91.1134,759.0214 c -2.1316,0.775 -3.2003,3.1006 -3.0747,5.2858 l -0.0547,-0.0136 c -1.3028,-0.3535 -2.4701,-1.1038 -3.2709,-2.2 l -0.0351,-0.0462 c -0.7818,-1.0958 -1.2104,-2.5486 -1.0662,-4.3174 0.0292,-0.3577 0.0831,-0.7311 0.1625,-1.118 0.911,-0.0604 1.7501,-0.3061 2.497,-0.7058 1.0349,-0.5542 1.8816,-1.3967 2.484,-2.439 l 0.0145,0.0233 c 0.0105,0.0201 0.0212,0.0405 0.0331,0.0601 0.1089,0.1774 0.19,0.3166 0.2407,0.4133 0.0584,0.1114 0.108,0.2174 0.1463,0.3126 l 0.0017,0.004 c 0.2032,0.5071 0.7795,0.7534 1.2866,0.5502 0.5071,-0.2033 0.7535,-0.7795 0.5502,-1.2867 l -0.0017,-0.004 c -0.0561,-0.14 -0.1346,-0.3067 -0.2313,-0.4907 -0.104,-0.1984 -0.2072,-0.3812 -0.303,-0.5374 -0.0156,-0.0253 -0.0315,-0.0502 -0.0488,-0.0734 -0.6001,-0.9548 -1.5366,-2.0861 -2.4658,-2.5864 -0.4814,-0.2588 -1.082,-0.0782 -1.3408,0.4031 -0.2588,0.4813 -0.0783,1.082 0.4031,1.3408 0.1057,0.057 0.2145,0.1293 0.3234,0.2151 -0.4198,1.0415 -1.1205,1.8681 -2.0225,2.3511 -0.9921,0.5309 -2.2556,0.6599 -3.6913,0.2214 -0.0445,-0.0133 -0.1151,-0.0371 -0.2001,-0.0658 l 3e-4,-8e-4 c -0.6852,-0.2319 -1.3184,-0.6305 -1.8496,-1.1452 -0.6568,-0.6364 -1.158,-1.4468 -1.4103,-2.3389 -0.2494,-0.8801 -0.2568,-1.8439 0.0669,-2.7995 0.2038,-0.6024 0.5406,-1.2073 1.029,-1.7912 0.3328,0.1174 0.6897,0.2174 1.0709,0.2976 0.0275,0.008 0.0553,0.0153 0.0842,0.021 l 0.091,0.0179 3e-4,-0.002 0.0074,0.002 c 2.5939,0.4935 5.2577,-0.2747 7.0217,-2.0747 0.3512,-0.358 0.6655,-0.7537 0.9345,-1.184 0.2688,-0.4298 0.4964,-0.8989 0.6741,-1.4035 l 0.0031,-0.009 c 0.1817,-0.5156 -0.089,-1.0817 -0.6046,-1.2634 -0.5156,-0.1817 -1.0817,0.089 -1.2634,0.6047 l -0.0031,0.009 c -0.1284,0.3642 -0.2931,0.7038 -0.4881,1.0156 -0.1948,0.3113 -0.4179,0.5933 -0.6631,0.8433 -1.2988,1.3255 -3.2859,1.8868 -5.2392,1.5177 l 2e-4,-10e-4 -0.0909,-0.0179 c -0.0224,-0.004 -0.0443,-0.008 -0.0664,-0.0113 -0.3401,-0.0729 -0.6724,-0.1732 -0.9918,-0.2994 -0.3342,-0.1318 -0.6333,-0.2831 -0.8958,-0.451 l 0.0012,-0.002 c -1.3746,-0.8801 -2.1325,-2.3683 -2.1677,-4.1743 l -3e-4,-0.0283 -8e-4,-0.0488 c -0.002,-0.3421 0.0312,-0.6661 0.0952,-0.9705 0.0604,-0.2866 0.1517,-0.5545 0.2685,-0.8008 0.5944,-1.2504 1.9216,-1.9616 3.5399,-2.0588 0.5456,-0.0321 0.962,-0.5006 0.93,-1.0463 -0.032,-0.5457 -0.5006,-0.9621 -1.0463,-0.93 -0.2483,0.015 -0.4915,0.0399 -0.7304,0.0765 -0.6427,-0.652 -1.0347,-1.8017 -1.0993,-3.081 -0.0394,-0.7809 0.0459,-1.5976 0.2724,-2.3712 0.22,-0.7514 0.5757,-1.4632 1.0814,-2.0588 0.6259,-0.7378 1.4981,-1.3022 2.649,-1.5446 0.0076,0.3572 0.0366,0.7093 0.0856,1.0554 0.2696,1.8884 1.1506,3.4137 2.3751,4.4804 0.0196,0.0193 0.0392,0.0386 0.0604,0.0567 1.2586,1.0704 2.8647,1.6546 4.5408,1.6546 0.3337,0 0.6784,-0.025 1.0313,-0.0751 0.5414,-0.0769 0.9178,-0.5786 0.841,-1.12 -0.0768,-0.5414 -0.5785,-0.9179 -1.1199,-0.841 -0.2435,0.0345 -0.4955,0.0518 -0.7524,0.0518 -1.2092,0 -2.3629,-0.4172 -3.2618,-1.1817 -0.0178,-0.0151 -0.0354,-0.0298 -0.0538,-0.0434 -0.8717,-0.7645 -1.5016,-1.8731 -1.6997,-3.2613 -0.0425,-0.2987 -0.0649,-0.6196 -0.0649,-0.9618 h -0.004 l 3e-4,-0.0841 c 0.004,-0.5415 0.0513,-1.0508 0.1383,-1.5245 0.0831,-0.4521 0.2064,-0.8717 0.3663,-1.2572 0.6281,-1.5131 1.8805,-2.4593 3.6201,-2.8003 -0.3677,1.9995 0.2767,4.3305 1.9925,5.4141 1.3328,0.8419 2.3921,-0.8359 1.0596,-1.6775 -1.2581,-0.7946 -1.4429,-3.0036 -0.8173,-4.2554 0.6642,-1.328 2.2516,-1.7132 3.625,-1.6752 1.576,0.0309 2.8862,1.3175 2.8862,2.9035 v 20.1566 c -0.4861,0.5074 -1.0332,0.7188 -1.5361,0.803 -0.3753,0.063 -0.7965,0.0579 -1.1509,0.0494 -0.0289,-0.1381 -0.0632,-0.2744 -0.1023,-0.4108 -0.2679,-0.9331 -0.7792,-1.8204 -1.5707,-2.5792 -0.979,-0.9383 -2.3825,-1.673 -4.2789,-2.0367 -0.5371,-0.1026 -1.0561,0.2497 -1.1588,0.7869 -0.1026,0.5371 0.2498,1.0562 0.7869,1.1588 1.4928,0.2863 2.5634,0.832 3.2789,1.5174 0.5238,0.502 0.8609,1.0851 1.036,1.6954 0.1781,0.6199 0.1934,1.2733 0.0723,1.9049 -0.1689,0.8824 -0.5998,1.7192 -1.2226,2.3691 -0.3787,0.3938 -0.3665,1.0205 0.0272,1.3992 0.3938,0.3787 1.0205,0.3665 1.3992,-0.0272 0.8884,-0.9269 1.5021,-2.1172 1.7419,-3.3692 0.0269,-0.1409 0.0499,-0.2832 0.0675,-0.4258 0.3784,0.0122 0.8393,0.015 1.3997,-0.0791 0.3929,-0.0658 0.802,-0.1769 1.2107,-0.3625 v 22.687 c 0,0.8139 -0.3467,1.5764 -0.9448,2.1246 -1.163,1.0667 -3.0844,0.9612 -4.4002,0.2506 -0.6026,-0.3254 -1.1044,-0.7903 -1.5304,-1.3227 -1.1061,-1.383 -0.7243,-4.3917 1.1585,-5.0765 1.4811,-0.5386 0.8031,-2.4032 -0.6781,-1.8647 z m -2.5214,7.4112 c 0.1384,0.273 0.3014,0.5318 0.4916,0.7696 0.5938,0.7421 1.2979,1.3757 2.137,1.8292 2.0687,1.1169 4.8883,1.1129 6.6841,-0.5343 1.0077,-0.9238 1.588,-2.2167 1.588,-3.587 v -45.2372 c 0,-2.666 -2.1714,-4.8351 -4.8235,-4.8872 -1.906,-0.0528 -3.8721,0.5408 -5.0187,2.0778 -3.0651,0.1819 -5.2804,1.593 -6.3377,4.1405 -0.2098,0.5057 -0.3719,1.0599 -0.4825,1.6603 l -0.0207,0.1185 c -1.8924,0.254 -3.3105,1.1194 -4.3103,2.2977 -0.6903,0.813 -1.173,1.7759 -1.4692,2.7873 -0.2897,0.9896 -0.3994,2.0274 -0.3495,3.0147 0.0683,1.3521 0.4413,2.6334 1.0655,3.6119 -1.0797,0.5394 -1.944,1.3765 -2.4735,2.4899 -0.1809,0.3813 -0.3217,0.796 -0.4158,1.2425 -0.0902,0.4286 -0.1367,0.8909 -0.1338,1.3836 h 2e-4 l -2e-4,0.008 0.0011,0.0868 v 0.004 c 0.0459,2.3582 1.0134,4.3399 2.7734,5.6041 -0.5108,0.6778 -0.8776,1.3794 -1.1166,2.0852 -0.46,1.3581 -0.4504,2.7241 -0.0975,3.9696 0.3493,1.2345 1.0369,2.3508 1.9369,3.2227 0.7416,0.7183 1.6297,1.2759 2.594,1.6027 l 6e-4,-10e-4 0.0034,10e-4 c 0.0672,0.0227 0.1502,0.0494 0.2577,0.082 0.2389,0.0728 0.4753,0.1338 0.7083,0.1834 -0.0694,0.3807 -0.119,0.7531 -0.1488,1.1168 -0.1854,2.2708 0.3952,4.1723 1.4454,5.635 0.0114,0.0179 0.023,0.0363 0.0357,0.0536 1.0766,1.474 2.6275,2.4775 4.3481,2.9443 0.3668,0.0992 0.7441,0.1741 1.1273,0.2245"
       style="fill:#004f91;fill-opacity:1;fill-rule:evenodd;stroke:none"
       transform="matrix(1.3333333,0,0,-1.3333333,0,1122.5197)" />
    <path
       id="path3"
       d="m 91.1134,759.0214 c -2.1316,0.775 -3.2003,3.1006 -3.0747,5.2858 l -0.0547,-0.0136 c -1.3028,-0.3535 -2.4701,-1.1038 -3.2709,-2.2 l -0.0351,-0.0462 c -0.7818,-1.0958 -1.2104,-2.5486 -1.0662,-4.3174 0.0292,-0.3577 0.0831,-0.7311 0.1625,-1.118 0.911,-0.0604 1.7501,-0.3061 2.497,-0.7058 1.0349,-0.5542 1.8816,-1.3967 2.484,-2.439 l 0.0145,0.0233 c 0.0105,0.0201 0.0212,0.0405 0.0331,0.0601 0.1089,0.1774 0.19,0.3166 0.2407,0.4133 0.0584,0.1114 0.108,0.2174 0.1463,0.3126 l 0.0017,0.004 c 0.2032,0.5071 0.7795,0.7534 1.2866,0.5502 0.5071,-0.2033 0.7535,-0.7795 0.5502,-1.2867 l -0.0017,-0.004 c -0.0561,-0.14 -0.1346,-0.3067 -0.2313,-0.4907 -0.104,-0.1984 -0.2072,-0.3812 -0.303,-0.5374 -0.0156,-0.0253 -0.0315,-0.0502 -0.0488,-0.0734 -0.6001,-0.9548 -1.5366,-2.0861 -2.4658,-2.5864 -0.4814,-0.2588 -1.082,-0.0782 -1.3408,0.4031 -0.2588,0.4813 -0.0783,1.082 0.4031,1.3408 0.1057,0.057 0.2145,0.1293 0.3234,0.2151 -0.4198,1.0415 -1.1205,1.8681 -2.0225,2.3511 -0.9921,0.5309 -2.2556,0.6599 -3.6913,0.2214 -0.0445,-0.0133 -0.1151,-0.0371 -0.2001,-0.0658 l 3e-4,-8e-4 c -0.6852,-0.2319 -1.3184,-0.6305 -1.8496,-1.1452 -0.6568,-0.6364 -1.158,-1.4468 -1.4103,-2.3389 -0.2494,-0.8801 -0.2568,-1.8439 0.0669,-2.7995 0.2038,-0.6024 0.5406,-1.2073 1.029,-1.7912 0.3328,0.1174 0.6897,0.2174 1.0709,0.2976 0.0275,0.008 0.0553,0.0153 0.0842,0.021 l 0.091,0.0179 3e-4,-0.002 0.0074,0.002 c 2.5939,0.4935 5.2577,-0.2747 7.0217,-2.0747 0.3512,-0.358 0.6655,-0.7537 0.9345,-1.184 0.2688,-0.4298 0.4964,-0.8989 0.6741,-1.4035 l 0.0031,-0.009 c 0.1817,-0.5156 -0.089,-1.0817 -0.6046,-1.2634 -0.5156,-0.1817 -1.0817,0.089 -1.2634,0.6047 l -0.0031,0.009 c -0.1284,0.3642 -0.2931,0.7038 -0.4881,1.0156 -0.1948,0.3113 -0.4179,0.5933 -0.6631,0.8433 -1.2988,1.3255 -3.2859,1.8868 -5.2392,1.5177 l 2e-4,-10e-4 -0.0909,-0.0179 c -0.0224,-0.004 -0.0443,-0.008 -0.0664,-0.0113 -0.3401,-0.0729 -0.6724,-0.1732 -0.9918,-0.2994 -0.3342,-0.1318 -0.6333,-0.2831 -0.8958,-0.451 l 0.0012,-0.002 c -1.3746,-0.8801 -2.1325,-2.3683 -2.1677,-4.1743 l -3e-4,-0.0283 -8e-4,-0.0488 c -0.002,-0.3421 0.0312,-0.6661 0.0952,-0.9705 0.0604,-0.2866 0.1517,-0.5545 0.2685,-0.8008 0.5944,-1.2504 1.9216,-1.9616 3.5399,-2.0588 0.5456,-0.0321 0.962,-0.5006 0.93,-1.0463 -0.032,-0.5457 -0.5006,-0.9621 -1.0463,-0.93 -0.2483,0.015 -0.4915,0.0399 -0.7304,0.0765 -0.6427,-0.652 -1.0347,-1.8017 -1.0993,-3.081 -0.0394,-0.7809 0.0459,-1.5976 0.2724,-2.3712 0.22,-0.7514 0.5757,-1.4632 1.0814,-2.0588 0.6259,-0.7378 1.4981,-1.3022 2.649,-1.5446 0.0076,0.3572 0.0366,0.7093 0.0856,1.0554 0.2696,1.8884 1.1506,3.4137 2.3751,4.4804 0.0196,0.0193 0.0392,0.0386 0.0604,0.0567 1.2586,1.0704 2.8647,1.6546 4.5408,1.6546 0.3337,0 0.6784,-0.025 1.0313,-0.0751 0.5414,-0.0769 0.9178,-0.5786 0.841,-1.12 -0.0768,-0.5414 -0.5785,-0.9179 -1.1199,-0.841 -0.2435,0.0345 -0.4955,0.0518 -0.7524,0.0518 -1.2092,0 -2.3629,-0.4172 -3.2618,-1.1817 -0.0178,-0.0151 -0.0354,-0.0298 -0.0538,-0.0434 -0.8717,-0.7645 -1.5016,-1.8731 -1.6997,-3.2613 -0.0425,-0.2987 -0.0649,-0.6196 -0.0649,-0.9618 h -0.004 l 3e-4,-0.0841 c 0.004,-0.5415 0.0513,-1.0508 0.1383,-1.5245 0.0831,-0.4521 0.2064,-0.8717 0.3663,-1.2572 0.6281,-1.5131 1.8805,-2.4593 3.6201,-2.8003 -0.3677,1.9995 0.2767,4.3305 1.9925,5.4141 1.3328,0.8419 2.3921,-0.8359 1.0596,-1.6775 -1.2581,-0.7946 -1.4429,-3.0036 -0.8173,-4.2554 0.6642,-1.328 2.2516,-1.7132 3.625,-1.6752 1.576,0.0309 2.8862,1.3175 2.8862,2.9035 v 20.1566 c -0.4861,0.5074 -1.0332,0.7188 -1.5361,0.803 -0.3753,0.063 -0.7965,0.0579 -1.1509,0.0494 -0.0289,-0.1381 -0.0632,-0.2744 -0.1023,-0.4108 -0.2679,-0.9331 -0.7792,-1.8204 -1.5707,-2.5792 -0.979,-0.9383 -2.3825,-1.673 -4.2789,-2.0367 -0.5371,-0.1026 -1.0561,0.2497 -1.1588,0.7869 -0.1026,0.5371 0.2498,1.0562 0.7869,1.1588 1.4928,0.2863 2.5634,0.832 3.2789,1.5174 0.5238,0.502 0.8609,1.0851 1.036,1.6954 0.1781,0.6199 0.1934,1.2733 0.0723,1.9049 -0.1689,0.8824 -0.5998,1.7192 -1.2226,2.3691 -0.3787,0.3938 -0.3665,1.0205 0.0272,1.3992 0.3938,0.3787 1.0205,0.3665 1.3992,-0.0272 0.8884,-0.9269 1.5021,-2.1172 1.7419,-3.3692 0.0269,-0.1409 0.0499,-0.2832 0.0675,-0.4258 0.3784,0.0122 0.8393,0.015 1.3997,-0.0791 0.3929,-0.0658 0.802,-0.1769 1.2107,-0.3625 v 22.687 c 0,0.8139 -0.3467,1.5764 -0.9448,2.1246 -1.163,1.0667 -3.0844,0.9612 -4.4002,0.2506 -0.6026,-0.3254 -1.1044,-0.7903 -1.5304,-1.3227 -1.1061,-1.383 -0.7243,-4.3917 1.1585,-5.0765 1.4811,-0.5386 0.8031,-2.4032 -0.6781,-1.8647"
       transform="matrix(1.3333333,0,0,-1.3333333,0,1122.5197)"
       style="fill:url(#linearGradient3);fill-rule:evenodd;stroke:none" />
    <path
       id="path4"
       d="m 114.7252,758.7505 0.004,0.005 c 0.1114,0.6865 0.4374,1.3014 0.9073,1.7711 0.5837,0.583 1.3913,0.9442 2.2839,0.9456 v 0.003 h 0.004 0.002 v -0.003 c 0.8941,-6e-4 1.7051,-0.364 2.2907,-0.9502 0.5825,-0.5833 0.9442,-1.3909 0.9457,-2.2838 h 0.003 v -0.004 -0.002 h -0.003 c -6e-4,-0.894 -0.364,-1.705 -0.9505,-2.2907 -0.5831,-0.5828 -1.391,-0.9442 -2.2836,-0.9456 v -0.003 h -0.004 -0.002 v 0.003 c -0.8938,6e-4 -1.7036,0.3637 -2.289,0.9488 l -0.002,-0.002 c -0.256,0.2559 -0.4686,0.5547 -0.627,0.8855 -0.9159,-0.5613 -1.8885,-0.733 -2.7927,-0.6579 -1.2096,0.1006 -2.3015,0.6593 -2.9713,1.3221 l -0.003,0.003 -0.011,0.011 c -0.6857,0.6857 -1.2915,1.4117 -1.2317,2.5637 0.0522,1.0094 0.6871,2.2493 2.4162,3.9316 0.7787,0.7577 0.7938,1.2759 0.4414,1.6382 -0.8422,0.8651 -3.0059,1.4394 -4.4436,1.8207 l -0.2372,0.0629 c -1.0474,0.2792 -1.6991,0.3563 -2.0141,0.1925 -0.1967,-0.1024 -0.2758,-0.472 -0.2758,-1.1339 v -9.7126 c 1.1906,-1.158 6.1382,-5.9684 7.1079,-6.8636 0.466,-0.43 0.775,-0.6763 1.095,-0.7954 0.3294,-0.1224 0.7764,-0.1533 1.5188,-0.1533 1.3471,0 4.019,0.0459 5.2319,0.0683 0.1523,0.5428 0.4414,1.029 0.8286,1.4159 0.5837,0.5831 1.3912,0.9442 2.2839,0.9456 v 0.003 h 0.004 0.002 v -0.003 c 0.8941,-5e-4 1.705,-0.3639 2.2907,-0.9501 0.5825,-0.5834 0.9442,-1.391 0.9456,-2.2839 h 0.003 v -0.004 -0.002 h -0.003 c -5e-4,-0.8941 -0.3639,-1.7051 -0.9504,-2.2907 -0.5831,-0.5828 -1.391,-0.9442 -2.2836,-0.9457 v -0.003 h -0.004 -0.002 v 0.003 c -0.8937,6e-4 -1.7036,0.3637 -2.2889,0.9488 l -0.002,-0.002 c -0.4,0.4 -0.6948,0.9051 -0.8416,1.4723 -1.2762,-0.0244 -4.0196,-0.0734 -5.2144,-0.0734 -0.9354,0 -1.5381,0.0533 -2.1101,0.2662 -0.5814,0.2163 -1.0287,0.5584 -1.6529,1.1344 -0.7497,0.6919 -4.026,3.8696 -5.9587,5.747 v -6.3718 c 0.7798,-0.8189 2.122,-2.3048 3.4926,-3.8225 1.9947,-2.209 4.053,-4.4884 4.4918,-4.8393 0.4722,-0.3778 5.4898,-0.0706 7.3111,0.0544 0.1604,0.5695 0.4649,1.0795 0.8716,1.4862 0.6135,0.6132 1.4633,0.9933 2.4024,0.9947 v 0.003 h 0.004 0.002 v -0.003 c 0.9409,-5e-4 1.793,-0.3827 2.4095,-0.9995 0.6131,-0.6134 0.9933,-1.4632 0.9947,-2.4023 h 0.003 v -0.004 -0.002 h -0.003 c -6e-4,-0.9408 -0.3827,-1.7929 -0.9995,-2.4094 -0.6137,-0.6132 -1.4636,-0.9933 -2.4024,-0.9947 v -0.003 h -0.004 -0.002 v 0.003 c -0.9408,6e-4 -1.7929,0.3827 -2.4095,0.9995 -0.4396,0.4399 -0.7585,1.0009 -0.9048,1.6296 -1.5622,-0.0961 -4.9836,-0.2639 -6.9613,-0.0402 -0.0119,-0.8958 -0.0349,-1.9284 -0.0349,-2.8987 0,-1.2549 0.0366,-2.3879 0.18,-2.8899 l 0.002,-0.006 0.0102,-0.0377 c 0.0321,-0.0935 0.087,-0.21 0.1636,-0.3447 0.1017,-0.1789 0.233,-0.3736 0.3892,-0.5734 0.7393,-0.946 2.0251,-2.0356 3.5742,-2.4758 0.1638,0.3793 0.3971,0.7214 0.6848,1.0088 0.5837,0.5831 1.3913,0.9442 2.2839,0.9457 v 0.003 h 0.004 0.002 v -0.003 c 0.8941,-6e-4 1.7051,-0.364 2.2907,-0.9502 0.5825,-0.5834 0.9442,-1.391 0.9457,-2.2839 h 0.003 v -0.004 -0.002 h -0.003 c -6e-4,-0.8941 -0.364,-1.7051 -0.9505,-2.2907 -0.5831,-0.5828 -1.391,-0.9442 -2.2836,-0.9456 v -0.003 h -0.004 -0.002 v 0.003 c -0.8938,5e-4 -1.7036,0.3637 -2.289,0.9487 l -0.002,-0.002 c -0.4941,0.4941 -0.8277,1.1492 -0.9196,1.8825 -2.044,0.5153 -3.725,1.9159 -4.67,3.1252 -0.2135,0.273 -0.3918,0.5372 -0.5293,0.7793 -0.1346,0.2366 -0.2372,0.4648 -0.3055,0.6746 -0.0102,0.0258 -0.0199,0.053 -0.0275,0.0802 l -0.002,0.006 c -0.1908,0.6681 -0.2393,1.9573 -0.2396,3.3548 0,1.2189 0.0358,2.5358 0.0417,3.5563 -0.8218,0.8019 -2.6215,2.7947 -4.3722,4.7336 -0.7871,0.8716 -1.5641,1.7317 -2.2368,2.467 v -14.7019 l 9.0493,-9.0493 c 0.6197,-0.125 1.1733,-0.4315 1.6036,-0.8612 l 0.002,0.002 c 0.5678,-0.5678 0.9196,-1.3555 0.921,-2.2277 h 0.003 v -0.004 -0.002 h -0.003 c -6e-4,-0.8713 -0.3549,-1.6608 -0.9258,-2.2314 -0.5681,-0.5678 -1.3547,-0.9196 -2.2244,-0.921 v -0.003 h -0.004 -0.002 v 0.003 c -0.8714,6e-4 -1.6608,0.3549 -2.2314,0.9258 -0.0941,0.0941 -0.1817,0.1933 -0.2631,0.2988 -2.0188,-0.9893 -3.4937,-1.3674 -4.5652,-1.3674 v 0.003 c -0.6894,2e-4 -1.237,0.1493 -1.6696,0.3965 -0.4674,0.2676 -0.7931,0.6395 -1.0122,1.0605 -0.2818,0.5408 -0.3751,1.1568 -0.3751,1.7195 h -0.003 v 47.9015 c 0,1.3516 0.3408,2.1991 1.1926,2.6419 0.7333,0.3812 1.7609,0.3325 3.2301,-0.0593 l 0.2372,-0.0629 c 1.6197,-0.4294 4.0564,-1.0757 5.2277,-2.2793 1.0425,-1.0718 1.2101,-2.3973 -0.4748,-4.0368 -1.3751,-1.338 -1.8737,-2.1963 -1.9049,-2.8018 -0.0238,-0.4623 0.335,-0.87 0.7401,-1.275 l 0.008,-0.008 c 0.4223,-0.4178 1.1245,-0.7716 1.915,-0.8373 0.7699,-0.0638 1.6226,0.1584 2.3735,0.8864 z M 103.8818,728.534 v -9.8532 h -0.003 c 0,-0.3223 0.0471,-0.6628 0.1891,-0.9355 0.0774,-0.1488 0.1899,-0.2792 0.3478,-0.3693 0.1939,-0.1109 0.4623,-0.1778 0.826,-0.1778 v 0.003 c 0.8569,0 2.1127,0.3439 3.9274,1.247 -0.0122,0.1131 -0.0198,0.2288 -0.0201,0.3453 h -0.003 v 0.004 0.002 h 0.003 c 6e-4,0.8705 0.3543,1.6591 0.9241,2.2297 l -0.002,0.002 c 0.2211,0.2211 0.4771,0.4088 0.7568,0.5565 l -6.946,6.946 z m 14.0448,31.244 v -0.003 h -0.002 -0.004 v 0.003 c -0.4226,-6e-4 -0.8081,-0.174 -1.0882,-0.4541 -0.2787,-0.2784 -0.4516,-0.6639 -0.4519,-1.0882 h 0.003 v -0.002 -0.004 h -0.003 c 6e-4,-0.4203 0.1744,-0.8047 0.4542,-1.0845 l -0.002,-0.002 0.002,-0.002 c 0.2783,-0.2789 0.6638,-0.4518 1.0882,-0.4521 v 0.003 h 0.002 0.004 v -0.003 c 0.4227,6e-4 0.8079,0.1743 1.088,0.4541 0.2789,0.2784 0.4518,0.6639 0.4521,1.0882 h -0.003 v 0.002 0.004 h 0.003 c -6e-4,0.4226 -0.1744,0.8081 -0.4541,1.0882 -0.2784,0.2786 -0.6639,0.4515 -1.0883,0.4518 z m 4.0275,-9.9847 v -0.003 h -0.002 -0.004 v 0.003 c -0.4227,-6e-4 -0.8082,-0.1741 -1.0882,-0.4542 -0.2787,-0.2783 -0.4516,-0.6638 -0.4519,-1.0882 h 0.003 v -0.002 -0.004 h -0.003 c 6e-4,-0.4204 0.1743,-0.8048 0.4541,-1.0845 l -0.002,-0.002 0.002,-0.002 c 0.2784,-0.279 0.6639,-0.4519 1.0882,-0.4522 v 0.003 h 0.002 0.004 v -0.003 c 0.4226,6e-4 0.8079,0.1744 1.0879,0.4541 0.2789,0.2784 0.4519,0.6639 0.4521,1.0883 h -0.003 v 0.002 0.004 h 0.003 c -5e-4,0.4226 -0.1743,0.8082 -0.4541,1.0882 -0.2783,0.2787 -0.6638,0.4516 -1.0882,0.4519 z m 0.5034,-9.4814 v -0.003 h -0.002 -0.004 v 0.003 c -0.4691,-5e-4 -0.8966,-0.193 -1.2067,-0.5031 -0.309,-0.309 -0.5009,-0.7362 -0.5012,-1.207 h 0.003 v -0.002 -0.004 h -0.003 c 6e-4,-0.4692 0.1934,-0.8964 0.5032,-1.2067 0.309,-0.309 0.7361,-0.5009 1.207,-0.5012 v 0.003 h 0.002 0.004 v -0.003 c 0.4691,6e-4 0.8963,0.1933 1.2067,0.5031 0.309,0.309 0.5009,0.7362 0.5012,1.207 h -0.003 v 0.002 0.004 h 0.003 c -6e-4,0.4691 -0.1931,0.8966 -0.5032,1.2067 -0.3089,0.3089 -0.7361,0.5009 -1.207,0.5011 z m -3.0206,-11.495 v -0.003 h -0.002 -0.004 v 0.003 c -0.4226,-6e-4 -0.8081,-0.1741 -1.0882,-0.4541 -0.2787,-0.2784 -0.4516,-0.6639 -0.4519,-1.0882 h 0.003 v -0.002 -0.004 h -0.003 c 6e-4,-0.4204 0.1744,-0.8047 0.4542,-1.0845 l -0.002,-0.002 0.002,-0.002 c 0.2783,-0.279 0.6638,-0.4519 1.0882,-0.4521 v 0.003 h 0.002 0.004 v -0.003 c 0.4227,5e-4 0.8079,0.1743 1.0879,0.4541 0.279,0.2783 0.4519,0.6638 0.4522,1.0882 h -0.003 v 0.002 0.004 h 0.003 c -6e-4,0.4227 -0.1744,0.8082 -0.4541,1.0882 -0.2784,0.2787 -0.6639,0.4516 -1.0883,0.4519 z m -7.1319,-8.5584 v -0.003 h -0.002 -0.004 v 0.003 c -0.3974,-5e-4 -0.7605,-0.1647 -1.0253,-0.4294 l -0.002,0.002 -0.002,-0.002 c -0.2636,-0.2634 -0.4271,-0.6279 -0.4274,-1.029 h 0.003 v -0.002 -0.004 h -0.003 c 5e-4,-0.3994 0.1647,-0.7637 0.4294,-1.0287 0.2634,-0.2637 0.6279,-0.4272 1.029,-0.4275 v 0.003 h 0.002 0.004 v -0.003 c 0.3994,6e-4 0.7637,0.1647 1.0287,0.4294 0.2637,0.2634 0.4272,0.6279 0.4275,1.029 h -0.003 v 0.002 0.004 h 0.003 c -6e-4,0.3974 -0.1647,0.7605 -0.4294,1.0253 l 0.002,0.002 -0.002,0.002 c -0.2634,0.2636 -0.6279,0.4271 -1.029,0.4274"
       style="fill:#004f91;fill-opacity:1;fill-rule:nonzero;stroke:none"
       transform="matrix(1.3333333,0,0,-1.3333333,0,1122.5197)" />
  </g>
</svg>
